<svg id="Layer_1" data-name="Layer 1" xmlns="http://www.w3.org/2000/svg" xmlns:xlink="http://www.w3.org/1999/xlink" viewBox="0 0 1219.02 320.08"><defs><style>.cls-1{fill:#f9ab2c;}.cls-2,.cls-5{fill:none;}.cls-2,.cls-3,.cls-5{stroke:#000;stroke-miterlimit:10;}.cls-2{stroke-width:44px;}.cls-4{fill:url(#linear-gradient);}.cls-5{stroke-width:46px;}</style><linearGradient id="linear-gradient" x1="776.88" y1="407.52" x2="851.73" y2="407.52" gradientUnits="userSpaceOnUse"><stop offset="0" stop-color="#fbb03b"/><stop offset="0.5" stop-color="#f7931e"/><stop offset="1" stop-color="#f15a24"/></linearGradient></defs><title>Logo</title><path class="cls-1" d="M1117.66,282a30,30,0,0,1-20.34-7.3q-8.45-7.3-8.45-20.65a25.66,25.66,0,0,1,8.66-19.92,29.09,29.09,0,0,1,20.13-7.82,29.86,29.86,0,0,1,19.61,7.09q8.55,7.09,8.55,20.65,0,13.14-8.34,20.55A28.86,28.86,0,0,1,1117.66,282Zm28.16,58.82V505.42q0,17.11-8.13,25.87T1117,540.05q-12.52,0-20.34-9t-7.82-25.66V342.51q0-16.9,7.82-25.45t20.34-8.55q12.52,0,20.65,8.55T1145.82,340.84Z" transform="translate(-74 -223.82)"/><path class="cls-1" d="M1143.46,340v6.88q15-19.81,32.85-29.1t41-9.28q22.53,0,40.26,9.8A62.31,62.31,0,0,1,1284,346.06a66,66,0,0,1,7.3,22.53,233.63,233.63,0,0,1,1.67,30.87v106q0,17.11-7.82,25.87t-20.34,8.76q-12.73,0-20.65-9t-7.93-25.66V410.51q0-28.16-7.82-43.08t-31.19-14.92a46.18,46.18,0,0,0-27.74,9.07q-12.52,9.07-18.36,24.93-4.17,12.73-4.17,47.56v71.34q0,17.32-8,26t-20.76,8.66a25.8,25.8,0,0,1-20.23-9q-7.93-9-7.93-25.66V340.84q0-16.27,7.09-24.3t19.4-8a26.32,26.32,0,0,1,13.56,3.55,25.43,25.43,0,0,1,9.7,10.64Q1143.45,329.79,1143.46,340Z" transform="translate(-74 -223.82)"/><path d="M345.75,258.45v84.48a121.72,121.72,0,0,1,21.17-19.82,76.29,76.29,0,0,1,22.84-11,95.81,95.81,0,0,1,26.91-3.65q21.69,0,38.49,9.18a71.28,71.28,0,0,1,34.52,49.54,180.42,180.42,0,0,1,2.09,29.1V505.42q0,17.11-7.82,25.87t-20.75,8.76q-28.16,0-28.16-34.63V409.26q0-27.32-8.14-42T396,352.52a46.29,46.29,0,0,0-27.43,8.66,52.09,52.09,0,0,0-18.25,23.68q-4.59,12.73-4.59,45.26v75.3q0,16.9-7.61,25.76T317,540.05q-28.16,0-28.16-34.63v-247q0-17.31,7.41-26T317,223.82q13.56,0,21.17,8.76T345.75,258.45Z" transform="translate(-74 -223.82)"/><path d="M654.75,438.26H543.36q.21,19.4,7.82,34.21t20.23,22.32a53.44,53.44,0,0,0,27.85,7.51,68.21,68.21,0,0,0,18.67-2.4,60.71,60.71,0,0,0,16.38-7.51,125,125,0,0,0,14.6-11q6.67-5.84,17.31-15.85,4.38-3.75,12.52-3.75,8.76,0,14.18,4.8t5.42,13.56q0,7.72-6,18T674,518q-12.2,9.5-30.66,15.75t-42.45,6.26q-54.86,0-85.32-31.29t-30.46-84.9A141.63,141.63,0,0,1,492.67,377a103.26,103.26,0,0,1,21.9-37A95,95,0,0,1,550,316.33q21.07-8.24,46.73-8.24,33.37,0,57.26,14.08t35.77,36.4Q701.68,380.9,701.68,404q0,21.49-12.31,27.85T654.75,438.26ZM543.36,405.92H646.61q-2.09-29.2-15.75-43.7t-36-14.5q-21.28,0-34.94,14.71T543.36,405.92Z" transform="translate(-74 -223.82)"/><path d="M1031.5,514l-50.27-82.6-30.87,29.2v45.26q0,16.48-8.66,25.34t-19.92,8.87q-13.14,0-20.65-8.76t-7.51-25.87V262.62q0-19,7.3-28.89t20.86-9.91q13.14,0,20.86,9t7.72,26.49V397.37l64-67.17q11.89-12.52,18.15-17.1a25.05,25.05,0,0,1,15.23-4.59,24.66,24.66,0,0,1,17.73,6.78,22.55,22.55,0,0,1,7.09,17q0,12.52-23.15,33.38l-30.25,27.74,58.41,91.78q6.46,10.22,9.28,15.54a21.69,21.69,0,0,1,2.82,10.12q0,13.56-7.41,21.38t-19.5,7.82q-10.43,0-16.06-5.63T1031.5,514Z" transform="translate(-74 -223.82)"/><circle cx="716.38" cy="98.75" r="5.4"/><path class="cls-2" d="M877.74,486.33A97.45,97.45,0,1,1,879,364.14" transform="translate(-74 -223.82)"/><path d="M893.71,501.62a242.37,242.37,0,0,1,1.76-2.54c4.07-9.26,1.41-21.4-6.82-28.71-8.77-7.79-20.63-7.23-27.34.91a4.51,4.51,0,0,1-.76,1.23,2,2,0,0,1-.13.3L893.34,502A4.68,4.68,0,0,1,893.71,501.62Z" transform="translate(-74 -223.82)"/><path class="cls-3" d="M894.12,348.39a5,5,0,0,1-3.48,1.26l-28.92,26.92a20.53,20.53,0,0,0,29.77,1.57A22.49,22.49,0,0,0,894.12,348.39Z" transform="translate(-74 -223.82)"/><circle cx="731.34" cy="137.88" r="5.4"/><circle cx="669.9" cy="200.32" r="5.4"/><circle cx="730.91" cy="262.75" r="5.4"/><circle cx="688.91" cy="156.5" r="5.4"/><circle cx="685.91" cy="243.5" r="5.4"/><circle cx="773.91" cy="243.5" r="5.4"/><path class="cls-4" d="M849.45,382.4a8,8,0,0,0-11.28-.12L803.82,415.9l-13.38-13.07a8,8,0,1,0-11.15,11.41l19,18.53a8,8,0,0,0,11.16,0l39.93-39.08a8,8,0,0,0,.12-11.28Z" transform="translate(-74 -223.82)"/><path class="cls-5" d="M269.74,477.33A97.45,97.45,0,1,1,271,355.14" transform="translate(-74 -223.82)"/><path d="M284.48,494.94l.47.43a4,4,0,0,1,.34-.39l-.28,0,.28,0,0,0a4.45,4.45,0,0,1,.67-1,4.66,4.66,0,0,1,.56-1A1.82,1.82,0,0,1,287,492C286.09,492.91,286,494.63,284.48,494.94Z" transform="translate(-74 -223.82)"/><path d="M279.57,462.14c-9-8.33-20.87-8-27.43.38a4.51,4.51,0,0,1-.74,1.27,2.09,2.09,0,0,1-.12.31l33.19,30.83c1.52-.3,1.61-2,2.52-2.94a1.82,1.82,0,0,0-.46.92,4.15,4.15,0,0,1,.49-.59C290.92,482.73,288,470,279.57,462.14Z" transform="translate(-74 -223.82)"/><path class="cls-3" d="M287.62,339.24" transform="translate(-74 -223.82)"/><path class="cls-3" d="M285.15,336.88a5.21,5.21,0,0,1-3,.85L251.63,366.9A21.22,21.22,0,0,0,283,368.51a24.85,24.85,0,0,0,5.16-28.26" transform="translate(-74 -223.82)"/></svg>